<?xml version="1.0" encoding="utf-8"?>
<!-- Generator: Adobe Illustrator 16.2.1, SVG Export Plug-In . SVG Version: 6.00 Build 0)  -->
<!DOCTYPE svg PUBLIC "-//W3C//DTD SVG 1.1//EN" "http://www.w3.org/Graphics/SVG/1.1/DTD/svg11.dtd">
<svg version="1.1" xmlns="http://www.w3.org/2000/svg" xmlns:xlink="http://www.w3.org/1999/xlink" x="0px" y="0px" width="100px"
	 height="100px" viewBox="0 0 100 100" enable-background="new 0 0 100 100" xml:space="preserve">
<g id="frown" display="none">
	<path display="inline" fill="#231F20" d="M43.75,25h-1.733c-2.17,3.729-6.152,6.25-10.767,6.25S22.647,28.729,20.483,25H18.75
		c0,6.909,5.597,12.5,12.5,12.5S43.75,31.909,43.75,25z"/>
	<path display="inline" fill="#231F20" d="M68.75,31.25c-4.614,0-8.603-2.521-10.767-6.25H56.25c0,6.909,5.597,12.5,12.5,12.5
		s12.5-5.591,12.5-12.5h-1.733C77.347,28.729,73.364,31.25,68.75,31.25z"/>
	<path display="inline" fill="#231F20" d="M50,56.25c-9.287,0-17.261,8.124-18.75,18.75c2.579-5.213,13.208-8.74,18.75-8.74
		c5.533,0,16.171,3.527,18.75,8.74C67.252,64.374,59.283,56.25,50,56.25z"/>
	<path display="inline" fill="#231F20" d="M93.75,0h-4.504h-1.315l-1.203,0.537C79.56,3.687,63.083,6.25,50,6.25
		S20.44,3.687,13.272,0.537L12.07,0h-1.315H6.25H0v6.25v37.5C0,65.259,33.652,100,50,100c16.349,0,50-34.741,50-56.25V6.25V0H93.75z
		 M93.75,43.75c0,18.75-31.25,50-43.75,50S6.25,62.5,6.25,43.75s0-37.5,0-37.5h4.504C19.565,10.132,37.341,12.5,50,12.5
		c12.658,0,30.436-2.368,39.246-6.25h4.504C93.75,6.25,93.75,25,93.75,43.75z"/>
</g>
<g id="smile">
	<path fill="#231F20" d="M50,65.002c-5.533,0-16.171-3.527-18.75-8.752C32.749,66.895,40.717,75,50,75
		c9.286,0,17.261-8.105,18.75-18.75C66.171,61.475,55.542,65.002,50,65.002z"/>
	<path fill="#231F20" d="M68.75,25c-6.903,0-12.5,5.609-12.5,12.5h1.733c2.164-3.723,6.152-6.25,10.767-6.25
		s8.597,2.527,10.767,6.25h1.733C81.25,30.609,75.653,25,68.75,25z"/>
	<path fill="#231F20" d="M42.017,37.5h1.733c0-6.891-5.597-12.5-12.5-12.5s-12.5,5.609-12.5,12.5h1.733
		c2.164-3.723,6.152-6.25,10.767-6.25S39.847,33.777,42.017,37.5z"/>
	<path fill="#231F20" d="M93.75,0h-4.504h-1.315l-1.203,0.537C79.56,3.687,63.083,6.25,50,6.25S20.44,3.687,13.272,0.537L12.07,0
		h-1.315H6.25H0v6.25v37.5C0,65.259,33.652,100,50,100c16.349,0,50-34.741,50-56.25V6.25V0H93.75z M93.75,43.75
		c0,18.75-31.25,50-43.75,50S6.25,62.5,6.25,43.75s0-37.5,0-37.5h4.504C19.565,10.132,37.341,12.5,50,12.5
		c12.658,0,30.436-2.368,39.246-6.25h4.504C93.75,6.25,93.75,25,93.75,43.75z"/>
</g>
</svg>
